<svg xmlns="http://www.w3.org/2000/svg" viewBox="0 0 24 24" width="100%" height="100%" fill="#E4405F">
  <path d="M12 2.162c3.204 0 3.584.012 4.85.07 1.366.062 2.633.336 3.608 1.311.975.975 1.249 2.242 1.311 3.608.058 1.266.07 1.646.07 4.85s-.012 3.584-.07 4.85c-.062 1.366-.336 2.633-1.311 3.608-.975.975-2.242 1.249-3.608 1.311-1.266.058-1.646.07-4.85.07s-3.584-.012-4.85-.07c-1.366-.062-2.633-.336-3.608-1.311-.975-.975-1.249-2.242-1.311-3.608-.058-1.266-.07-1.646-.07-4.85s.012-3.584.07-4.85c.062-1.366.336-2.633 1.311-3.608.975-.975 2.242-1.249 3.608-1.311 1.266-.058 1.646-.07 4.85-.07M12 0C8.741 0 8.332.014 7.052.072 4.299.272 2.69 1.824 2.457 4.644 2.387 5.963 2.373 6.373 2.373 12s.014 6.037.072 7.052c.235 2.82 1.777 4.438 4.644 4.615 1.321.058 1.731.072 7.052.072s6.037-.014 7.052-.072c2.819-.177 4.438-1.777 4.615-4.615.058-1.321.072-1.731.072-7.052s-.014-6.037-.072-7.052c-.177-2.819-1.777-4.438-4.615-4.644C18.037.014 17.627 0 12 0zm0 5.838a6.162 6.162 0 100 12.324 6.162 6.162 0 000-12.324zM12 16a4 4 0 110-8 4 4 0 010 8zm6.406-11.845a1.44 1.44 0 100 2.88 1.44 1.44 0 000-2.88z"/>
</svg>
